<svg width="168" height="12" viewBox="0 0 168 12" fill="none" xmlns="http://www.w3.org/2000/svg">
<path d="M168 5.99995L162.983 3.1432L163.017 8.9166L168 5.99995ZM1.00299 7.49999L2.99109 7.48809L2.9851 6.4881L0.997006 6.50001L1.00299 7.49999ZM6.96728 7.46428L10.9435 7.44046L10.9375 6.44048L6.96129 6.46429L6.96728 7.46428ZM14.9197 7.41665L18.8958 7.39284L18.8899 6.39286L14.9137 6.41667L14.9197 7.41665ZM22.872 7.36903L26.8482 7.34522L26.8422 6.34524L22.866 6.36905L22.872 7.36903ZM30.8244 7.32141L34.8006 7.2976L34.7946 6.29762L30.8184 6.32143L30.8244 7.32141ZM38.7768 7.27379L42.753 7.24998L42.747 6.25L38.7708 6.27381L38.7768 7.27379ZM46.7291 7.22617L50.7053 7.20236L50.6993 6.20238L46.7232 6.22619L46.7291 7.22617ZM54.6815 7.17855L58.6577 7.15474L58.6517 6.15476L54.6755 6.17857L54.6815 7.17855ZM62.6339 7.13093L66.6101 7.10712L66.6041 6.10713L62.6279 6.13094L62.6339 7.13093ZM70.5863 7.08331L74.5625 7.05949L74.5565 6.05951L70.5803 6.08332L70.5863 7.08331ZM78.5386 7.03568L82.5148 7.01187L82.5088 6.01189L78.5326 6.0357L78.5386 7.03568ZM86.491 6.98806L90.4672 6.96425L90.4612 5.96427L86.485 5.98808L86.491 6.98806ZM94.4434 6.94044L98.4196 6.91663L98.4136 5.91665L94.4374 5.94046L94.4434 6.94044ZM102.396 6.89282L106.372 6.86901L106.366 5.86903L102.39 5.89284L102.396 6.89282ZM110.348 6.8452L114.324 6.82139L114.318 5.82141L110.342 5.84522L110.348 6.8452ZM118.3 6.79758L122.277 6.77377L122.271 5.77379L118.295 5.7976L118.3 6.79758ZM126.253 6.74996L130.229 6.72615L130.223 5.72616L126.247 5.74998L126.253 6.74996ZM134.205 6.70234L138.181 6.67853L138.175 5.67854L134.199 5.70235L134.205 6.70234ZM142.158 6.65471L146.134 6.6309L146.128 5.63092L142.152 5.65473L142.158 6.65471ZM150.11 6.60709L154.086 6.58328L154.08 5.5833L150.104 5.60711L150.11 6.60709ZM158.062 6.55947L162.039 6.53566L162.033 5.53568L158.056 5.55949L158.062 6.55947ZM168 5.99995L157.965 0.286437L158.035 11.8332L168 5.99995ZM1.00599 7.99998L2.99408 7.98808L2.98211 5.98811L0.994012 6.00002L1.00599 7.99998ZM6.97027 7.96427L10.9465 7.94046L10.9345 5.94049L6.95829 5.9643L6.97027 7.96427ZM14.9226 7.91664L18.8988 7.89283L18.8869 5.89287L14.9107 5.91668L14.9226 7.91664ZM22.875 7.86902L26.8512 7.84521L26.8392 5.84525L22.863 5.86906L22.875 7.86902ZM30.8274 7.8214L34.8036 7.79759L34.7916 5.79763L30.8154 5.82144L30.8274 7.8214ZM38.7798 7.77378L42.756 7.74997L42.744 5.75001L38.7678 5.77382L38.7798 7.77378ZM46.7321 7.72616L50.7083 7.70235L50.6964 5.70239L46.7202 5.7262L46.7321 7.72616ZM54.6845 7.67854L58.6607 7.65473L58.6487 5.65476L54.6725 5.67857L54.6845 7.67854ZM62.6369 7.63092L66.6131 7.60711L66.6011 5.60714L62.6249 5.63095L62.6369 7.63092ZM70.5893 7.5833L74.5654 7.55949L74.5535 5.55952L70.5773 5.58333L70.5893 7.5833ZM78.5416 7.53568L82.5178 7.51186L82.5058 5.5119L78.5297 5.53571L78.5416 7.53568ZM86.494 7.48805L90.4702 7.46424L90.4582 5.46428L86.482 5.48809L86.494 7.48805ZM94.4464 7.44043L98.4226 7.41662L98.4106 5.41666L94.4344 5.44047L94.4464 7.44043ZM102.399 7.39281L106.375 7.369L106.363 5.36904L102.387 5.39285L102.399 7.39281ZM110.351 7.34519L114.327 7.32138L114.315 5.32142L110.339 5.34523L110.351 7.34519ZM118.303 7.29757L122.28 7.27376L122.268 5.27379L118.292 5.29761L118.303 7.29757ZM126.256 7.24995L130.232 7.22614L130.22 5.22617L126.244 5.24998L126.256 7.24995ZM134.208 7.20233L138.184 7.17852L138.172 5.17855L134.196 5.20236L134.208 7.20233ZM142.161 7.15471L146.137 7.1309L146.125 5.13093L142.149 5.15474L142.161 7.15471ZM150.113 7.10708L154.089 7.08327L154.077 5.08331L150.101 5.10712L150.113 7.10708ZM158.065 7.05946L162.042 7.03565L162.03 5.03569L158.053 5.0595L158.065 7.05946Z" fill="#3F9868"/>
</svg>
