<svg width="319" height="455" viewBox="0 0 319 455" fill="none" xmlns="http://www.w3.org/2000/svg">
<g filter="url(#filter0_d_4_5)">
<path d="M434.936 205.626C435.348 210.048 435.615 214.509 435.732 219.007L435.41 219.015C435.468 221.244 435.489 223.481 435.473 225.726C435.457 227.971 435.404 230.208 435.314 232.435L435.636 232.448C435.454 236.944 435.122 241.401 434.646 245.816L434.326 245.781C433.844 250.248 433.215 254.671 432.441 259.045L432.759 259.102C431.977 263.527 431.048 267.904 429.978 272.225L429.665 272.148C428.588 276.498 427.368 280.792 426.009 285.026L426.316 285.125C424.945 289.397 423.433 293.608 421.786 297.753L421.487 297.634C419.834 301.794 418.045 305.886 416.125 309.906L416.416 310.045C414.485 314.087 412.423 318.056 410.234 321.947L409.953 321.789C407.76 325.685 405.441 329.503 402.999 333.237L403.269 333.413C400.82 337.158 398.249 340.82 395.561 344.391L395.303 344.197C392.618 347.765 389.815 351.244 386.902 354.627L387.146 354.838C384.229 358.226 381.201 361.519 378.066 364.711L377.836 364.485C374.71 367.67 371.479 370.754 368.147 373.733L368.362 373.973C365.032 376.951 361.602 379.824 358.078 382.586L357.879 382.332C354.37 385.083 350.768 387.723 347.078 390.249L347.26 390.515C343.576 393.037 339.804 395.444 335.95 397.732L335.785 397.454C331.955 399.728 328.043 401.884 324.055 403.915L324.201 404.203C320.228 406.227 316.179 408.129 312.06 409.903L311.933 409.607C307.844 411.369 303.687 413.004 299.465 414.509L299.573 414.813C295.377 416.308 291.119 417.675 286.802 418.908L286.713 418.598C282.439 419.818 278.109 420.907 273.726 421.859L273.795 422.174C269.446 423.12 265.045 423.931 260.599 424.604L260.55 424.285C256.16 424.949 251.725 425.478 247.248 425.868L247.276 426.189C242.853 426.574 238.389 426.822 233.891 426.93L233.883 426.608C231.654 426.661 229.417 426.68 227.171 426.664C224.926 426.648 222.689 426.597 220.461 426.511L220.448 426.833C215.952 426.661 211.493 426.348 207.075 425.9L207.108 425.579C202.637 425.125 198.21 424.533 193.83 423.805L193.777 424.123C189.34 423.386 184.952 422.512 180.617 421.504L180.69 421.19C176.321 420.175 172.007 419.024 167.751 417.742L167.658 418.051C163.36 416.756 159.121 415.328 154.947 413.773L155.06 413.471C150.86 411.905 146.726 410.21 142.663 408.39L142.532 408.684C138.439 406.85 134.418 404.89 130.474 402.809L130.625 402.524C126.666 400.435 122.786 398.224 118.988 395.895L118.82 396.17C114.999 393.827 111.262 391.366 107.615 388.791L107.801 388.528C104.147 385.949 100.583 383.257 97.1142 380.457L96.9117 380.707C93.4279 377.895 90.0397 374.973 86.7526 371.947L86.9709 371.71C83.6828 368.684 80.496 365.553 77.4159 362.324L77.1827 362.547C74.0947 359.31 71.1139 355.973 68.2457 352.544L68.493 352.337C65.6286 348.912 62.8767 345.393 60.2428 341.787L59.9825 341.977C57.3461 338.367 54.8277 334.67 52.4329 330.889L52.7052 330.717C50.3177 326.948 48.0532 323.098 45.9171 319.17L45.6339 319.324C43.5009 315.403 41.4956 311.404 39.6235 307.335L39.9164 307.2C38.0543 303.153 36.3243 299.035 34.7316 294.852L34.4303 294.967C32.8434 290.799 31.3925 286.566 30.0831 282.274L30.3914 282.18C29.0938 277.927 27.9352 273.616 26.9209 269.251L26.6069 269.324C25.5991 264.987 24.7335 260.598 24.015 256.162L24.3332 256.11C23.6231 251.725 23.057 247.293 22.6398 242.82L22.3188 242.85C21.9064 238.429 21.6393 233.967 21.522 229.469L21.8442 229.461C21.7861 227.233 21.7648 224.996 21.781 222.75C21.7971 220.505 21.8506 218.269 21.9407 216.041L21.6186 216.028C21.8006 211.533 22.132 207.075 22.6079 202.661L22.9284 202.695C23.4099 198.228 24.0397 193.805 24.8129 189.431L24.4954 189.375C25.2776 184.949 26.2063 180.573 27.2764 176.251L27.5893 176.329C28.6663 171.979 29.8868 167.685 31.2454 163.45L30.9385 163.352C32.3095 159.079 33.8211 154.868 35.4679 150.724L35.7675 150.843C37.4202 146.683 39.2093 142.59 41.1294 138.57L40.8385 138.431C42.7689 134.389 44.8314 130.42 47.0207 126.53L47.3017 126.688C49.494 122.791 51.8137 118.974 54.2551 115.24L53.9853 115.063C56.4343 111.318 59.0056 107.657 61.6936 104.086L61.9512 104.279C64.6367 100.711 67.4389 97.2327 70.3523 93.8492L70.108 93.6388C73.0252 90.2508 76.0537 86.9579 79.1879 83.7654L79.418 83.9912C82.5441 80.8069 85.7756 77.7227 89.1069 74.7439L88.8921 74.5036C92.2224 71.5256 95.6522 68.6529 99.1762 65.8906L99.3751 66.1443C102.884 63.3939 106.486 60.7532 110.176 58.2274L109.994 57.9614C113.679 55.4398 117.45 53.0326 121.304 50.745L121.469 51.0222C125.3 48.7484 129.212 46.593 133.2 44.5612L133.053 44.2739C137.027 42.2495 141.075 40.3476 145.194 38.5732L145.321 38.8692C149.41 37.1077 153.568 35.4721 157.789 33.9673L157.681 33.6637C161.877 32.1681 166.136 30.8015 170.453 29.569L170.541 29.8789C174.815 28.6587 179.145 27.5699 183.528 26.6173L183.46 26.3023C187.809 25.357 192.209 24.5456 196.656 23.8728L196.704 24.1915C201.094 23.5272 205.53 22.9981 210.006 22.6088L209.978 22.2877C214.402 21.9029 218.865 21.6544 223.363 21.5465L223.371 21.8688C225.6 21.8153 227.838 21.7963 230.083 21.8125C232.329 21.8287 234.566 21.8798 236.794 21.9653L236.806 21.6432C241.302 21.8158 245.762 22.1285 250.179 22.5768L250.147 22.8975C254.617 23.3512 259.045 23.944 263.425 24.6714L263.478 24.3534C267.914 25.0901 272.302 25.9647 276.637 26.9725L276.564 27.2865C280.933 28.302 285.247 29.453 289.503 30.7346L289.596 30.4259C293.895 31.7205 298.133 33.1482 302.307 34.7039L302.195 35.006C306.394 36.5714 310.528 38.2666 314.591 40.0868L314.723 39.7926C318.815 41.6261 322.836 43.5861 326.78 45.6674L326.629 45.9525C330.588 48.0415 334.468 50.253 338.266 52.5817L338.435 52.3068C342.255 54.6496 345.992 57.1108 349.64 59.6852L349.454 59.9486C353.107 62.5271 356.671 65.2194 360.14 68.02L360.343 67.7692C363.826 70.5819 367.215 73.5036 370.502 76.5292L370.283 76.7664C373.572 79.7928 376.758 82.9232 379.838 86.1522L380.072 85.9297C383.16 89.1669 386.14 92.5031 389.009 95.9327L388.761 96.1395C391.626 99.5646 394.378 103.083 397.012 106.689L397.272 106.499C399.908 110.109 402.427 113.807 404.821 117.587L404.549 117.76C406.937 121.528 409.201 125.379 411.337 129.306L411.62 129.152C413.753 133.074 415.759 137.072 417.631 141.141L417.338 141.276C419.2 145.324 420.93 149.442 422.523 153.625L422.824 153.51C424.411 157.678 425.862 161.91 427.171 166.202L426.863 166.296C428.161 170.549 429.319 174.861 430.333 179.225L430.647 179.152C431.655 183.489 432.521 187.878 433.239 192.315L432.921 192.367C433.631 196.752 434.197 201.183 434.615 205.656L434.936 205.626Z" stroke="#41D290" stroke-width="0.644729" stroke-dasharray="12.89 12.89" shape-rendering="crispEdges"/>
</g>
<defs>
<filter id="filter0_d_4_5" x="0.896855" y="0.928227" width="462.715" height="453.875" filterUnits="userSpaceOnUse" color-interpolation-filters="sRGB">
<feFlood flood-opacity="0" result="BackgroundImageFix"/>
<feColorMatrix in="SourceAlpha" type="matrix" values="0 0 0 0 0 0 0 0 0 0 0 0 0 0 0 0 0 0 127 0" result="hardAlpha"/>
<feOffset dx="3.62758" dy="3.62758"/>
<feGaussianBlur stdDeviation="12.0919"/>
<feComposite in2="hardAlpha" operator="out"/>
<feColorMatrix type="matrix" values="0 0 0 0 1 0 0 0 0 1 0 0 0 0 1 0 0 0 1 0"/>
<feBlend mode="normal" in2="BackgroundImageFix" result="effect1_dropShadow_4_5"/>
<feBlend mode="normal" in="SourceGraphic" in2="effect1_dropShadow_4_5" result="shape"/>
</filter>
</defs>
</svg>
