<svg width="398" height="688" viewBox="0 0 398 688" fill="none" xmlns="http://www.w3.org/2000/svg">
<g filter="url(#filter0_d_4_21)">
<path d="M657.399 310.122C658.024 316.818 658.428 323.575 658.606 330.387L658.118 330.399C658.206 333.774 658.238 337.162 658.214 340.562C658.189 343.963 658.108 347.35 657.972 350.723L658.46 350.742C658.184 357.551 657.682 364.301 656.961 370.987L656.476 370.935C655.747 377.7 654.793 384.398 653.622 391.023L654.103 391.108C652.918 397.811 651.512 404.438 649.891 410.983L649.417 410.866C647.786 417.453 645.938 423.957 643.88 430.369L644.345 430.518C642.269 436.989 639.98 443.366 637.486 449.643L637.032 449.463C634.529 455.763 631.819 461.961 628.911 468.049L629.352 468.26C626.429 474.381 623.305 480.392 619.989 486.284L619.564 486.045C616.244 491.945 612.731 497.727 609.033 503.382L609.442 503.649C605.733 509.321 601.839 514.866 597.768 520.275L597.378 519.981C593.311 525.385 589.067 530.653 584.655 535.777L585.025 536.096C580.607 541.226 576.02 546.213 571.274 551.048L570.925 550.706C566.191 555.529 561.297 560.2 556.252 564.711L556.577 565.075C551.534 569.585 546.339 573.936 541.002 578.119L540.701 577.735C535.387 581.9 529.932 585.899 524.343 589.724L524.619 590.127C519.039 593.946 513.327 597.592 507.49 601.056L507.241 600.636C501.44 604.08 495.515 607.344 489.476 610.421L489.697 610.856C483.68 613.922 477.548 616.803 471.311 619.49L471.118 619.041C464.926 621.709 458.629 624.186 452.236 626.465L452.4 626.925C446.045 629.19 439.595 631.26 433.058 633.126L432.924 632.657C426.451 634.505 419.893 636.154 413.256 637.596L413.359 638.074C406.773 639.505 400.109 640.734 393.374 641.753L393.301 641.27C386.652 642.276 379.935 643.077 373.156 643.667L373.198 644.153C366.499 644.736 359.739 645.112 352.927 645.276L352.915 644.788C349.54 644.869 346.151 644.898 342.75 644.873C339.349 644.849 335.961 644.771 332.587 644.642L332.568 645.129C325.759 644.868 319.005 644.395 312.315 643.716L312.364 643.23C305.595 642.543 298.889 641.645 292.256 640.543L292.176 641.025C285.457 639.909 278.811 638.585 272.246 637.058L272.356 636.583C265.74 635.045 259.206 633.302 252.761 631.361L252.621 631.828C246.111 629.868 239.691 627.706 233.37 625.35L233.54 624.892C227.18 622.521 220.92 619.954 214.767 617.198L214.567 617.643C208.369 614.866 202.28 611.898 196.307 608.746L196.535 608.314C190.541 605.15 184.664 601.801 178.912 598.275L178.657 598.691C172.871 595.143 167.212 591.415 161.688 587.517L161.969 587.118C156.436 583.213 151.039 579.135 145.785 574.894L145.478 575.274C140.202 571.014 135.071 566.589 130.093 562.007L130.424 561.648C125.444 557.065 120.618 552.324 115.953 547.434L115.6 547.771C110.923 542.868 106.409 537.816 102.065 532.622L102.44 532.308C98.1016 527.121 93.934 521.793 89.9451 516.331L89.5509 516.619C85.5582 511.152 81.7442 505.552 78.1174 499.827L78.5298 499.566C74.9141 493.859 71.4846 488.027 68.2496 482.079L67.8207 482.312C64.5903 476.373 61.5534 470.318 58.7183 464.155L59.1618 463.951C56.3418 457.821 53.7217 451.585 51.3097 445.25L50.8534 445.424C48.45 439.112 46.2528 432.702 44.2697 426.202L44.7367 426.06C42.7715 419.618 41.0169 413.089 39.4808 406.479L39.0053 406.589C37.479 400.022 36.168 393.374 35.0799 386.655L35.5618 386.577C34.4864 379.936 33.6291 373.225 32.9972 366.45L32.5111 366.496C31.8866 359.8 31.4819 353.043 31.3043 346.231L31.7923 346.219C31.7043 342.844 31.6721 339.456 31.6966 336.056C31.721 332.655 31.802 329.268 31.9385 325.895L31.4507 325.876C31.7263 319.067 32.2281 312.317 32.9489 305.631L33.4343 305.683C34.1635 298.918 35.1173 292.22 36.2882 285.595L35.8074 285.51C36.992 278.808 38.3985 272.18 40.0191 265.635L40.493 265.752C42.124 259.165 43.9723 252.661 46.03 246.249L45.5652 246.1C47.6415 239.629 49.9307 233.252 52.4247 226.975L52.8784 227.155C55.3813 220.855 58.0908 214.657 60.9987 208.569L60.5582 208.358C63.4817 202.237 66.6053 196.226 69.9209 190.334L70.3464 190.573C73.6666 184.673 77.1796 178.891 80.877 173.236L80.4684 172.969C84.1773 167.297 88.0714 161.752 92.1423 156.343L92.5324 156.637C96.5994 151.233 100.843 145.965 105.255 140.841L104.886 140.522C109.304 135.392 113.89 130.405 118.637 125.57L118.985 125.912C123.719 121.089 128.613 116.418 133.658 111.907L133.333 111.543C138.377 107.033 143.571 102.682 148.908 98.4991L149.209 98.8834C154.523 94.718 159.979 90.7187 165.567 86.8936L165.292 86.4907C170.871 82.6719 176.583 79.0263 182.42 75.5619L182.669 75.9817C188.471 72.5381 194.395 69.2739 200.435 66.1967L200.213 65.7617C206.231 62.6959 212.362 59.8155 218.599 57.1282L218.793 57.5765C224.985 54.9088 231.281 52.4317 237.675 50.1528L237.511 49.693C243.865 47.428 250.315 45.3584 256.853 43.4917L256.987 43.9612C263.459 42.1132 270.017 40.4642 276.655 39.0216L276.551 38.5445C283.138 37.1129 289.802 35.8841 296.536 34.8651L296.609 35.3478C303.258 34.3418 309.975 33.5405 316.754 32.9509L316.712 32.4646C323.411 31.8819 330.171 31.5056 336.984 31.3421L336.995 31.8301C340.371 31.7491 343.759 31.7205 347.16 31.7449C350.561 31.7694 353.949 31.8468 357.323 31.9764L357.342 31.4885C364.151 31.75 370.904 32.2235 377.595 32.9025L377.546 33.3882C384.315 34.0753 391.021 34.973 397.654 36.0746L397.734 35.593C404.453 36.7088 411.099 38.0333 417.664 39.5595L417.554 40.0351C424.17 41.573 430.704 43.3161 437.149 45.257L437.289 44.7896C443.8 46.7501 450.219 48.9122 456.54 51.2684L456.37 51.7259C462.73 54.0965 468.99 56.6639 475.143 59.4204L475.343 58.9749C481.541 61.7516 487.63 64.7199 493.603 67.8721L493.375 68.3038C499.37 71.4675 505.247 74.8167 510.998 78.3434L511.253 77.9272C517.039 81.4751 522.698 85.2025 528.223 89.1013L527.941 89.5002C533.474 93.4053 538.872 97.4826 544.125 101.724L544.432 101.344C549.708 105.604 554.839 110.029 559.817 114.611L559.487 114.97C564.466 119.553 569.293 124.294 573.957 129.184L574.31 128.847C578.987 133.75 583.501 138.802 587.845 143.996L587.471 144.31C591.809 149.497 595.976 154.825 599.965 160.287L600.359 159.999C604.352 165.466 608.166 171.066 611.793 176.791L611.38 177.052C614.996 182.759 618.426 188.591 621.661 194.539L622.09 194.306C625.32 200.245 628.357 206.3 631.192 212.463L630.748 212.667C633.568 218.797 636.189 225.033 638.601 231.368L639.057 231.194C641.46 237.506 643.657 243.916 645.641 250.416L645.174 250.558C647.139 257 648.893 263.529 650.429 270.139L650.905 270.029C652.431 276.596 653.742 283.244 654.83 289.963L654.348 290.041C655.424 296.682 656.281 303.393 656.913 310.168L657.399 310.122Z" stroke="white" stroke-width="0.976411" stroke-dasharray="19.53 19.53" shape-rendering="crispEdges"/>
</g>
<defs>
<filter id="filter0_d_4_21" x="0.0687118" y="0.1168" width="700.76" height="687.372" filterUnits="userSpaceOnUse" color-interpolation-filters="sRGB">
<feFlood flood-opacity="0" result="BackgroundImageFix"/>
<feColorMatrix in="SourceAlpha" type="matrix" values="0 0 0 0 0 0 0 0 0 0 0 0 0 0 0 0 0 0 127 0" result="hardAlpha"/>
<feOffset dx="5.49379" dy="5.49379"/>
<feGaussianBlur stdDeviation="18.3126"/>
<feComposite in2="hardAlpha" operator="out"/>
<feColorMatrix type="matrix" values="0 0 0 0 1 0 0 0 0 1 0 0 0 0 1 0 0 0 1 0"/>
<feBlend mode="normal" in2="BackgroundImageFix" result="effect1_dropShadow_4_21"/>
<feBlend mode="normal" in="SourceGraphic" in2="effect1_dropShadow_4_21" result="shape"/>
</filter>
</defs>
</svg>
