<svg width="427" height="419" viewBox="0 0 427 419" fill="none" xmlns="http://www.w3.org/2000/svg">
<g filter="url(#filter0_d_4_9)">
<path d="M400.543 188.91C400.923 192.981 401.169 197.089 401.277 201.23L400.98 201.238C401.033 203.289 401.053 205.349 401.038 207.417C401.023 209.484 400.974 211.543 400.891 213.594L401.188 213.606C401.02 217.745 400.715 221.849 400.277 225.914L399.982 225.882C399.538 229.994 398.958 234.067 398.247 238.094L398.539 238.146C397.819 242.221 396.964 246.25 395.978 250.229L395.69 250.158C394.699 254.163 393.575 258.117 392.324 262.015L392.607 262.106C391.344 266.04 389.953 269.917 388.436 273.733L388.16 273.624C386.639 277.453 384.992 281.222 383.224 284.923L383.491 285.051C381.714 288.773 379.815 292.427 377.799 296.009L377.541 295.864C375.522 299.451 373.386 302.966 371.138 306.404L371.387 306.566C369.132 310.015 366.765 313.386 364.29 316.674L364.053 316.495C361.58 319.781 359 322.983 356.317 326.099L356.542 326.292C353.856 329.412 351.068 332.444 348.182 335.383L347.97 335.175C345.092 338.107 342.117 340.947 339.05 343.689L339.247 343.911C336.181 346.652 333.023 349.297 329.779 351.841L329.596 351.607C326.365 354.14 323.048 356.571 319.65 358.896L319.818 359.141C316.426 361.463 312.953 363.679 309.405 365.786L309.253 365.53C305.726 367.624 302.124 369.608 298.453 371.479L298.587 371.744C294.929 373.608 291.201 375.359 287.409 376.993L287.292 376.72C283.527 378.342 279.699 379.848 275.812 381.233L275.912 381.513C272.049 382.89 268.127 384.148 264.153 385.283L264.071 384.998C260.136 386.121 256.149 387.123 252.114 388.001L252.177 388.291C248.173 389.161 244.121 389.908 240.027 390.528L239.983 390.234C235.941 390.846 231.857 391.333 227.735 391.691L227.761 391.987C223.688 392.341 219.579 392.57 215.437 392.669L215.43 392.373C213.377 392.422 211.317 392.439 209.25 392.424C207.182 392.41 205.122 392.363 203.071 392.284L203.06 392.58C198.92 392.421 194.814 392.134 190.747 391.721L190.777 391.425C186.661 391.008 182.584 390.462 178.551 389.792L178.503 390.085C174.418 389.407 170.378 388.601 166.386 387.674L166.453 387.384C162.431 386.449 158.459 385.39 154.541 384.21L154.455 384.494C150.497 383.302 146.594 381.987 142.751 380.555L142.855 380.277C138.988 378.836 135.182 377.275 131.442 375.599L131.32 375.87C127.552 374.182 123.85 372.377 120.219 370.461L120.357 370.198C116.713 368.275 113.14 366.239 109.643 364.095L109.488 364.348C105.97 362.191 102.53 359.925 99.1716 357.554L99.3427 357.312C95.9788 354.938 92.6974 352.459 89.5035 349.88L89.3171 350.111C86.1094 347.521 82.9898 344.831 79.9633 342.046L80.1643 341.827C77.1368 339.041 74.2027 336.158 71.3668 333.186L71.1521 333.39C68.3089 330.41 65.5644 327.338 62.9236 324.18L63.1513 323.99C60.514 320.836 57.9802 317.597 55.5551 314.276L55.3154 314.451C52.8881 311.128 50.5694 307.723 48.3644 304.243L48.6151 304.084C46.4169 300.614 44.332 297.069 42.3652 293.453L42.1045 293.595C40.1405 289.984 38.2942 286.302 36.5706 282.556L36.8402 282.432C35.1258 278.705 33.5329 274.914 32.0665 271.062L31.7891 271.168C30.3279 267.33 28.9921 263.433 27.7865 259.482L28.0704 259.395C26.8756 255.479 25.8089 251.51 24.875 247.491L24.5859 247.558C23.658 243.565 22.861 239.524 22.1995 235.439L22.4924 235.392C21.8386 231.354 21.3174 227.274 20.9333 223.155L20.6377 223.183C20.258 219.112 20.012 215.004 19.904 210.863L20.2008 210.855C20.1473 208.804 20.1277 206.744 20.1425 204.677C20.1574 202.609 20.2066 200.55 20.2896 198.5L19.9931 198.488C20.1606 194.349 20.4657 190.244 20.9039 186.18L21.199 186.211C21.6423 182.099 22.2222 178.027 22.934 173.999L22.6418 173.947C23.362 169.872 24.217 165.843 25.2023 161.864L25.4904 161.935C26.482 157.93 27.6057 153.976 28.8566 150.078L28.574 149.987C29.8364 146.054 31.2281 142.176 32.7443 138.36L33.0202 138.47C34.5418 134.64 36.1891 130.872 37.957 127.17L37.6891 127.042C39.4665 123.321 41.3655 119.666 43.3813 116.084L43.6399 116.23C45.6585 112.642 47.7943 109.127 50.0421 105.69L49.7937 105.527C52.0485 102.079 54.416 98.7078 56.8909 95.4194L57.1281 95.5979C59.6007 92.3127 62.1807 89.1099 64.8632 85.9946L64.6383 85.8009C67.3242 82.6815 70.1126 79.6496 72.9983 76.7102L73.2101 76.9182C76.0885 73.9863 79.0638 71.1466 82.131 68.4039L81.9331 68.1826C84.9994 65.4408 88.1574 62.7958 91.402 60.2525L91.5851 60.4861C94.8158 57.9537 98.1325 55.5224 101.53 53.1968L101.363 52.9519C104.755 50.6302 108.227 48.4138 111.776 46.3076L111.927 46.5629C115.454 44.4693 119.056 42.4848 122.728 40.614L122.593 40.3496C126.252 38.4857 129.979 36.7345 133.771 35.1007L133.889 35.3733C137.653 33.7515 141.481 32.2455 145.368 30.86L145.269 30.5804C149.132 29.2034 153.053 27.9452 157.028 26.8103L157.109 27.0958C161.044 25.9722 165.031 24.9698 169.067 24.0927L169.003 23.8027C173.008 22.9323 177.059 22.1852 181.153 21.5657L181.198 21.8592C185.24 21.2476 189.324 20.7605 193.445 20.402L193.42 20.1063C197.493 19.7521 201.602 19.5233 205.744 19.4239L205.751 19.7206C207.803 19.6714 209.863 19.6539 211.931 19.6688C213.998 19.6837 216.058 19.7307 218.109 19.8095L218.121 19.5129C222.261 19.6719 226.366 19.9597 230.434 20.3725L230.404 20.6678C234.52 21.0855 238.596 21.6313 242.629 22.3011L242.678 22.0083C246.763 22.6866 250.803 23.4919 254.794 24.4197L254.727 24.7088C258.749 25.6439 262.722 26.7036 266.64 27.8836L266.726 27.5994C270.683 28.7913 274.586 30.1058 278.429 31.5382L278.326 31.8163C282.192 33.2576 285.998 34.8185 289.739 36.4943L289.86 36.2234C293.628 37.9116 297.331 39.7162 300.962 41.6325L300.823 41.895C304.468 43.8184 308.041 45.8546 311.537 47.9986L311.692 47.7456C315.21 49.9026 318.651 52.1687 322.009 54.539L321.838 54.7815C325.202 57.1556 328.483 59.6345 331.677 62.2131L331.864 61.9821C335.071 64.5718 338.191 67.262 341.217 70.0476L341.016 70.266C344.044 73.0525 346.978 75.9348 349.814 78.9077L350.029 78.7029C352.872 81.6835 355.616 84.7552 358.257 87.9129L358.029 88.1033C360.667 91.2569 363.2 94.4964 365.625 97.8169L365.865 97.6418C368.293 100.965 370.611 104.37 372.816 107.851L372.565 108.009C374.764 111.479 376.849 115.025 378.815 118.641L379.076 118.499C381.04 122.11 382.886 125.791 384.61 129.538L384.34 129.662C386.055 133.388 387.648 137.18 389.114 141.031L389.392 140.925C390.853 144.763 392.189 148.66 393.394 152.611L393.11 152.698C394.305 156.614 395.372 160.584 396.306 164.602L396.595 164.535C397.523 168.528 398.32 172.569 398.981 176.654L398.688 176.702C399.342 180.739 399.863 184.819 400.247 188.938L400.543 188.91Z" stroke="white" stroke-width="0.593616" stroke-dasharray="11.87 11.87" shape-rendering="crispEdges"/>
</g>
<defs>
<filter id="filter0_d_4_9" x="0.914214" y="0.440245" width="426.032" height="417.893" filterUnits="userSpaceOnUse" color-interpolation-filters="sRGB">
<feFlood flood-opacity="0" result="BackgroundImageFix"/>
<feColorMatrix in="SourceAlpha" type="matrix" values="0 0 0 0 0 0 0 0 0 0 0 0 0 0 0 0 0 0 127 0" result="hardAlpha"/>
<feOffset dx="3.33999" dy="3.33999"/>
<feGaussianBlur stdDeviation="11.1333"/>
<feComposite in2="hardAlpha" operator="out"/>
<feColorMatrix type="matrix" values="0 0 0 0 1 0 0 0 0 1 0 0 0 0 1 0 0 0 1 0"/>
<feBlend mode="normal" in2="BackgroundImageFix" result="effect1_dropShadow_4_9"/>
<feBlend mode="normal" in="SourceGraphic" in2="effect1_dropShadow_4_9" result="shape"/>
</filter>
</defs>
</svg>
