<svg width="64" height="80" viewBox="0 0 64 80" fill="none" xmlns="http://www.w3.org/2000/svg">
<path d="M28.532 0.765034C29.6025 0.26123 30.771 0 31.9541 0C33.1372 0 34.3057 0.26123 35.3762 0.765034L55.2087 11.1993C55.7089 11.4229 56.1466 11.766 56.4832 12.1985C56.8197 12.6309 57.0448 13.1395 57.1387 13.6794H57.1587V66.0806C57.1106 66.6692 56.9039 67.2337 56.5605 67.714C56.2171 68.1944 55.75 68.5727 55.2087 68.8087L35.3762 79.235C34.3057 79.7388 33.1372 80 31.9541 80C30.771 80 29.6025 79.7388 28.532 79.235L8.69952 68.8007C8.16414 68.5618 7.70389 68.1816 7.36811 67.701C7.03233 67.2204 6.83369 66.6575 6.79347 66.0726C6.79347 65.9826 6.79347 65.9066 6.79347 65.8426V13.6694C6.87636 13.13 7.09469 12.6206 7.42804 12.1886C7.76138 11.7566 8.19885 11.4162 8.69952 11.1993L28.532 0.765034ZM54.0346 42.9101L35.3762 52.7103C34.306 53.2151 33.1374 53.4768 31.9541 53.4768C30.7708 53.4768 29.6022 53.2151 28.532 52.7103L9.91355 42.9321V65.9766L28.532 75.7129C29.456 76.2718 30.4717 76.6625 31.5321 76.8669L31.9581 76.8929C33.1217 76.7781 34.2451 76.405 35.2462 75.8009L54.0466 65.8886V42.9101H54.0346ZM3.56739 64.9406C3.47513 66.3947 3.7145 67.8507 4.26741 69.1987C4.74052 70.0608 5.43867 70.7783 6.28746 71.2748L6.34746 71.3148C6.58146 71.4708 6.83747 71.6348 7.14748 71.8268L7.51549 72.0488L8.64151 72.7268L7.02547 75.3869L5.76544 74.6268L5.55344 74.4968C5.18743 74.2728 4.88542 74.0808 4.60341 73.8968C1.59134 71.8708 0.467313 69.6667 0.445312 65.0806V64.9406H3.56539H3.56739ZM30.388 28.8637C30.2511 28.9115 30.1175 28.9683 29.988 29.0337L10.1596 39.46L10.0996 39.494H10.0815L10.1136 39.514L10.1596 39.538L29.992 49.9642C30.121 50.0307 30.2547 50.0876 30.392 50.1342L30.388 28.8637ZM33.5181 28.8637V50.1422C33.6555 50.0956 33.7892 50.0387 33.9181 49.9722L53.7506 39.546L53.8106 39.512H53.8286L53.7966 39.496L53.7506 39.47L33.9181 29.0437C33.7892 28.9772 33.6555 28.9204 33.5181 28.8737V28.8637ZM54.0346 17.3994L36.2342 26.7517L54.0346 36.1039V17.3894V17.3994ZM9.91355 17.4214V36.0819L27.662 26.7517L9.91355 17.4214ZM33.9141 3.5211C33.2938 3.25387 32.6255 3.11604 31.9501 3.11604C31.2747 3.11604 30.6063 3.25387 29.986 3.5211L10.1576 13.9394L10.0976 13.9714L10.0795 13.9814L10.1116 13.9994L10.1576 14.0214L29.99 24.4476C30.6099 24.7167 31.2784 24.8555 31.9541 24.8555C32.6298 24.8555 33.2983 24.7167 33.9181 24.4476L53.7506 14.0214L53.8106 13.9994L53.8286 13.9894L53.7966 13.9714L53.7506 13.9474L33.9141 3.5211ZM56.9627 4.66713L58.2227 5.42515L58.4467 5.54315C58.8107 5.76716 59.1128 5.96116 59.3948 6.14317C62.4088 8.16322 63.5309 10.3693 63.5549 14.9554V15.0954H60.4248C60.517 13.6407 60.2776 12.184 59.7248 10.8353C59.2512 9.97342 58.5523 9.2565 57.7027 8.76123L57.6427 8.72123C57.4107 8.56323 57.1547 8.40122 56.8427 8.20922L56.4767 7.99921L55.3507 7.3232L56.9667 4.66313L56.9627 4.66713Z" fill="white"/>
</svg>
