<svg width="18" height="20" viewBox="0 0 18 20" fill="none" xmlns="http://www.w3.org/2000/svg">
<path d="M6.66236 0.414914C7.2747 0.414914 8.38805 1.13859 10.0024 2.58595C11.6168 4.00547 13.078 5.42499 14.3862 6.84451L16.3903 8.9738C16.8634 9.55831 17.1 10.0871 17.1 10.5603C17.1 11.117 16.6825 11.4232 15.8475 11.4788C14.8455 12.119 12.7719 13.4272 9.62665 15.4034C6.50927 17.3796 4.10165 18.9105 2.40379 19.996C1.45744 19.8011 0.984269 19.3836 0.984269 18.7434C0.984269 18.0754 1.69403 17.31 3.11355 16.4472L13.3007 10.1846L6.49535 4.08897C5.85518 2.89212 5.53509 2.02927 5.53509 1.50043C5.53509 0.776753 5.91085 0.414914 6.66236 0.414914Z" fill="#41D290"/>
</svg>
