<svg width="17" height="21" viewBox="0 0 17 21" fill="none" xmlns="http://www.w3.org/2000/svg">
<path d="M10.6503 20.0377C10.0379 20.0377 8.92458 19.328 7.31025 17.9085C5.69592 16.4612 4.23467 15.0277 2.9265 13.6082L0.9225 11.479C0.449333 10.8945 0.21275 10.3657 0.21275 9.8925C0.21275 9.33583 0.63025 9.02967 1.46525 8.974C2.46725 8.33383 4.52692 7.02567 7.64425 5.0495C10.7894 3.07333 13.2109 1.5425 14.9088 0.456999C15.8551 0.651833 16.3283 1.08325 16.3283 1.75125C16.3283 2.39142 15.6185 3.14292 14.199 4.00575L4.012 10.2682L10.8173 16.3637C11.4574 17.5606 11.7775 18.4234 11.7775 18.9522C11.7775 19.6759 11.4018 20.0377 10.6503 20.0377Z" fill="#41D290"/>
</svg>
