<svg width="35" height="35" viewBox="0 0 35 35" fill="none" xmlns="http://www.w3.org/2000/svg">
<g clip-path="url(#clip0_4_87)">
<path d="M17.2429 7.48592C18.1448 7.93511 18.8908 8.67824 19.3429 9.58066C19.445 9.78423 19.6503 9.90263 19.865 9.90263C19.9525 9.90263 20.0417 9.88281 20.1257 9.84076C20.4133 9.69612 20.53 9.3455 20.3852 9.05737C19.8211 7.93156 18.8896 7.00173 17.762 6.44112C17.4727 6.29818 17.1233 6.41487 16.9798 6.70362C16.8369 6.99189 16.9541 7.34243 17.2429 7.48592Z" fill="url(#paint0_linear_4_87)"/>
<path d="M29.1667 1.75C29.1667 2.07197 29.4274 2.33331 29.75 2.33331C30.0726 2.33331 30.3333 2.07197 30.3333 1.75C30.3333 0.785176 29.5481 0 28.5833 0H1.75C0.785176 0 0 0.785176 0 1.75C0 2.07197 0.261338 2.33331 0.583311 2.33331C0.905283 2.33331 1.16662 2.07197 1.16662 1.75C1.16662 1.42857 1.42851 1.16669 1.74993 1.16669H28.5832C28.9054 1.16669 29.1667 1.42857 29.1667 1.75Z" fill="url(#paint1_linear_4_87)"/>
<path d="M9.33398 11.6667C9.33398 14.8833 11.9508 17.5001 15.1673 17.5001C18.3838 17.5001 21.0006 14.8832 21.0006 11.6667C21.0006 11.3448 20.7399 11.0834 20.4173 11.0834C20.0947 11.0834 19.834 11.3448 19.834 11.6667C19.834 14.2399 17.7404 16.3334 15.1673 16.3334C12.5942 16.3334 10.5006 14.2399 10.5006 11.6667C10.5006 9.09363 12.5942 7.00006 15.1673 7.00006C15.4893 7.00006 15.7506 6.73872 15.7506 6.41675C15.7506 6.09477 15.4893 5.83344 15.1673 5.83344C11.9508 5.83337 9.33398 8.45023 9.33398 11.6667Z" fill="url(#paint2_linear_4_87)"/>
<path d="M18.4959 29.9209C18.2678 29.6929 17.8991 29.6929 17.6711 29.9209C17.443 30.149 17.443 30.5177 17.6711 30.7457L19.4211 32.4957C19.5302 32.6054 19.6783 32.6666 19.8335 32.6666H34.4168C34.7394 32.6666 35.0001 32.4053 35.0001 32.0833C35.0001 31.7614 34.7394 31.5 34.4168 31.5H20.075L18.4959 29.9209Z" fill="url(#paint3_linear_4_87)"/>
<path d="M23.9163 25.6667C25.4434 25.6667 26.669 24.4638 26.8318 22.7845L27.9984 2.95107C28.0171 2.6291 27.7721 2.35313 27.4507 2.33447C27.1287 2.30761 26.8527 2.56136 26.8341 2.88224L25.6691 22.6934C25.5653 23.7574 24.8449 24.5 23.9162 24.5H20.9996V23.9167C20.9996 22.9519 20.2144 22.1667 19.2496 22.1667H11.0829C10.1181 22.1667 9.3329 22.9519 9.3329 23.9167V24.5H6.41628C5.48933 24.5 4.76834 23.7569 4.66512 22.7156L3.49843 2.88224C3.47915 2.56081 3.19744 2.30412 2.88183 2.33447C2.5604 2.35313 2.31485 2.62903 2.33406 2.95107L3.50246 22.8071C3.66577 24.4638 4.89139 25.6666 6.41621 25.6666H9.91621H20.4162H23.9163V25.6667ZM19.8329 24.5H10.4996V23.9167C10.4996 23.5953 10.7615 23.3334 11.0829 23.3334H19.2496C19.5716 23.3334 19.8329 23.5953 19.8329 23.9167V24.5Z" fill="url(#paint4_linear_4_87)"/>
<path d="M7 11.6667C7 16.17 10.6633 19.8334 15.1667 19.8334C19.6701 19.8334 23.3334 16.1701 23.3334 11.6667C23.3334 7.16331 19.67 3.5 15.1667 3.5C10.6634 3.5 7 7.16331 7 11.6667ZM22.1667 11.6667C22.1667 15.5266 19.0266 18.6667 15.1667 18.6667C11.3068 18.6667 8.16669 15.5266 8.16669 11.6667C8.16669 7.80678 11.3068 4.66669 15.1667 4.66669C19.0266 4.66669 22.1667 7.80678 22.1667 11.6667Z" fill="url(#paint5_linear_4_87)"/>
<path d="M34.4166 33.8333H18.908L15.5789 30.5042C15.3509 30.2761 14.9821 30.2761 14.7541 30.5042C14.526 30.7323 14.526 31.101 14.7541 31.329L18.2541 34.829C18.3632 34.9387 18.5113 34.9999 18.6665 34.9999H34.4165C34.7391 34.9999 34.9998 34.7386 34.9998 34.4166C34.9998 34.0947 34.7392 33.8333 34.4166 33.8333Z" fill="url(#paint6_linear_4_87)"/>
<path d="M18.9931 27.7509C19.1775 27.4866 19.1133 27.1232 18.8485 26.9383C18.5848 26.754 18.2208 26.8188 18.0365 27.0824C17.3802 28.0222 16.3075 28.5833 15.1665 28.5833C14.0255 28.5833 12.9527 28.0222 12.2965 27.0824C12.1121 26.8188 11.7482 26.754 11.4839 26.9383C11.2196 27.1232 11.1549 27.4866 11.3398 27.7509C12.2142 29.0028 13.6445 29.75 15.1665 29.75C16.6884 29.75 18.1181 29.0028 18.9931 27.7509Z" fill="url(#paint7_linear_4_87)"/>
</g>
<defs>
<linearGradient id="paint0_linear_4_87" x1="18.6832" y1="6.38013" x2="18.6832" y2="9.90263" gradientUnits="userSpaceOnUse">
<stop stop-color="#3F9868"/>
<stop offset="1" stop-color="#41D290"/>
</linearGradient>
<linearGradient id="paint1_linear_4_87" x1="15.1667" y1="0" x2="15.1667" y2="2.33331" gradientUnits="userSpaceOnUse">
<stop stop-color="#3F9868"/>
<stop offset="1" stop-color="#41D290"/>
</linearGradient>
<linearGradient id="paint2_linear_4_87" x1="15.1673" y1="5.83344" x2="15.1673" y2="17.5001" gradientUnits="userSpaceOnUse">
<stop stop-color="#3F9868"/>
<stop offset="1" stop-color="#41D290"/>
</linearGradient>
<linearGradient id="paint3_linear_4_87" x1="26.2501" y1="29.7499" x2="26.2501" y2="32.6666" gradientUnits="userSpaceOnUse">
<stop stop-color="#3F9868"/>
<stop offset="1" stop-color="#41D290"/>
</linearGradient>
<linearGradient id="paint4_linear_4_87" x1="15.1662" y1="2.33203" x2="15.1662" y2="25.6667" gradientUnits="userSpaceOnUse">
<stop stop-color="#3F9868"/>
<stop offset="1" stop-color="#41D290"/>
</linearGradient>
<linearGradient id="paint5_linear_4_87" x1="15.1667" y1="3.5" x2="15.1667" y2="19.8334" gradientUnits="userSpaceOnUse">
<stop stop-color="#3F9868"/>
<stop offset="1" stop-color="#41D290"/>
</linearGradient>
<linearGradient id="paint6_linear_4_87" x1="24.7914" y1="30.3331" x2="24.7914" y2="34.9999" gradientUnits="userSpaceOnUse">
<stop stop-color="#3F9868"/>
<stop offset="1" stop-color="#41D290"/>
</linearGradient>
<linearGradient id="paint7_linear_4_87" x1="15.1663" y1="26.8333" x2="15.1663" y2="29.75" gradientUnits="userSpaceOnUse">
<stop stop-color="#3F9868"/>
<stop offset="1" stop-color="#41D290"/>
</linearGradient>
<clipPath id="clip0_4_87">
<rect width="35" height="35" fill="white"/>
</clipPath>
</defs>
</svg>
