<svg width="38" height="38" viewBox="0 0 38 38" fill="none" xmlns="http://www.w3.org/2000/svg">
<path d="M36.0549 15.0112L33.3877 14.5588C33.1099 13.6617 32.7527 12.7965 32.3161 11.9709L33.8878 9.77207C34.5546 8.83537 34.4514 7.55733 33.6338 6.74764L31.2682 4.38208C30.8237 3.93755 30.2363 3.69147 29.6092 3.69147C29.117 3.69147 28.6487 3.84229 28.2518 4.12807L26.045 5.69981C25.1876 5.24734 24.2906 4.87425 23.3619 4.59641L22.9173 1.96096C22.7268 0.825808 21.7504 0.000244141 20.5994 0.000244141H17.2575C16.1064 0.000244141 15.13 0.825808 14.9395 1.96096L14.4791 4.65992C13.5901 4.93775 12.7248 5.30291 11.8992 5.74744L9.71625 4.17569C9.31935 3.88992 8.84306 3.7391 8.3509 3.7391C7.72379 3.7391 7.12843 3.98518 6.69183 4.42971L4.31834 6.79527C3.50865 7.60496 3.39751 8.883 4.06432 9.81969L5.65194 12.0503C5.21534 12.8838 4.86607 13.7491 4.59617 14.6461L1.96071 15.0906C0.825564 15.2811 0 16.2575 0 17.4085V20.7505C0 21.9015 0.825564 22.8779 1.96071 23.0684L4.65967 23.5288C4.93751 24.4179 5.30266 25.2831 5.7472 26.1087L4.18339 28.2838C3.51659 29.2205 3.61978 30.4985 4.43741 31.3082L6.80297 33.6737C7.2475 34.1183 7.83492 34.3643 8.46203 34.3643C8.9542 34.3643 9.42254 34.2135 9.81945 33.9278L12.0501 32.3401C12.8518 32.7609 13.6932 33.1022 14.5585 33.3721L15.003 36.0393C15.1936 37.1744 16.1699 38 17.321 38H20.6709C21.8219 38 22.7983 37.1744 22.9888 36.0393L23.4413 33.3721C24.3383 33.0943 25.2035 32.737 26.0291 32.3004L28.2279 33.8722C28.6248 34.158 29.1011 34.3088 29.5933 34.3088C30.2204 34.3088 30.8078 34.0627 31.2524 33.6182L33.6179 31.2526C34.4276 30.4429 34.5387 29.1649 33.8719 28.2282L32.3002 26.0214C32.7368 25.1879 33.1019 24.3226 33.3718 23.4336L36.039 22.989C37.1742 22.7985 37.9998 21.8221 37.9998 20.6711V17.3292C38.0156 16.1781 37.1901 15.2017 36.0549 15.0112ZM35.8723 20.6711C35.8723 20.7743 35.8009 20.8616 35.6977 20.8775L32.3637 21.4332C31.943 21.5046 31.6096 21.8142 31.5064 22.219C31.2047 23.3859 30.7443 24.5052 30.1252 25.5451C29.9108 25.9103 29.9267 26.3627 30.1728 26.712L32.1335 29.4745C32.1891 29.5539 32.1811 29.6729 32.1097 29.7444L29.7441 32.1099C29.6886 32.1655 29.633 32.1734 29.5933 32.1734C29.5457 32.1734 29.506 32.1576 29.4742 32.1337L26.7197 30.173C26.3784 29.9269 25.9179 29.9111 25.5528 30.1254C24.5129 30.7446 23.3936 31.205 22.2267 31.5066C21.8139 31.6098 21.5044 31.9512 21.4409 32.3639L20.8772 35.698C20.8614 35.8012 20.774 35.8726 20.6709 35.8726H17.3289C17.2257 35.8726 17.1384 35.8012 17.1225 35.698L16.5668 32.3639C16.4954 31.9432 16.1858 31.6098 15.781 31.5066C14.6458 31.2129 13.5504 30.7604 12.5263 30.173C12.3596 30.0778 12.1691 30.0301 11.9866 30.0301C11.7722 30.0301 11.55 30.0936 11.3674 30.2286L8.58904 32.2052C8.54935 32.229 8.50966 32.2449 8.46997 32.2449C8.43822 32.2449 8.37471 32.2369 8.31915 32.1814L5.95359 29.8158C5.88214 29.7444 5.87421 29.6332 5.92977 29.5459L7.88255 26.8073C8.12863 26.458 8.14451 25.9976 7.93018 25.6324C7.31101 24.6005 6.83472 23.4812 6.53307 22.3143C6.42194 21.9094 6.08853 21.5999 5.67575 21.5284L2.31793 20.9569C2.21473 20.941 2.14329 20.8537 2.14329 20.7505V17.4085C2.14329 17.3053 2.21473 17.218 2.31793 17.2021L5.62812 16.6465C6.04884 16.575 6.39018 16.2654 6.49338 15.8527C6.78709 14.6858 7.23956 13.5585 7.8508 12.5187C8.06513 12.1535 8.04131 11.701 7.79523 11.3597L5.81864 8.58135C5.76307 8.50197 5.77101 8.3829 5.84245 8.31145L8.20801 5.94589C8.26358 5.89033 8.31915 5.88239 8.35884 5.88239C8.40647 5.88239 8.44616 5.89826 8.47791 5.92208L11.2166 7.87486C11.5658 8.12094 12.0262 8.13681 12.3914 7.92248C13.4234 7.30331 14.5426 6.82702 15.7095 6.52538C16.1144 6.41424 16.424 6.08084 16.4954 5.66806L17.0669 2.31024C17.0828 2.20704 17.1701 2.1356 17.2733 2.1356H20.6153C20.7185 2.1356 20.8058 2.20704 20.8217 2.31024L21.3773 5.62043C21.4488 6.04115 21.7584 6.38249 22.1712 6.48569C23.3698 6.78733 24.5129 7.25568 25.5766 7.88279C25.9418 8.09712 26.3942 8.08125 26.7435 7.83517L29.4822 5.86651C29.5219 5.8427 29.5615 5.82682 29.6012 5.82682C29.633 5.82682 29.6965 5.83476 29.7521 5.89033L32.1176 8.25589C32.1891 8.32733 32.197 8.43846 32.1414 8.52578L30.1807 11.2803C29.9346 11.6216 29.9188 12.0821 30.1331 12.4472C30.7523 13.4871 31.2127 14.6064 31.5143 15.7733C31.6175 16.1861 31.9589 16.4956 32.3716 16.5592L35.7056 17.1228C35.8088 17.1386 35.8803 17.226 35.8803 17.3292V20.6711H35.8723Z" fill="url(#paint0_linear_4_84)"/>
<path d="M19.0038 10.7959C14.4791 10.7959 10.8037 14.4712 10.8037 18.996C10.8037 23.5207 14.4791 27.196 19.0038 27.196C23.5285 27.196 27.2039 23.5207 27.2039 18.996C27.2039 14.4712 23.5285 10.7959 19.0038 10.7959ZM19.0038 25.0528C15.6618 25.0528 12.947 22.3379 12.947 18.996C12.947 15.654 15.6618 12.9392 19.0038 12.9392C22.3457 12.9392 25.0606 15.654 25.0606 18.996C25.0606 22.3379 22.3457 25.0528 19.0038 25.0528Z" fill="url(#paint1_linear_4_84)"/>
<defs>
<linearGradient id="paint0_linear_4_84" x1="19" y1="0.000244141" x2="19" y2="38" gradientUnits="userSpaceOnUse">
<stop stop-color="#3F9868"/>
<stop offset="1" stop-color="#41D290"/>
</linearGradient>
<linearGradient id="paint1_linear_4_84" x1="19.0038" y1="10.7959" x2="19.0038" y2="27.196" gradientUnits="userSpaceOnUse">
<stop stop-color="#3F9868"/>
<stop offset="1" stop-color="#41D290"/>
</linearGradient>
</defs>
</svg>
