<svg width="39" height="39" viewBox="0 0 39 39" fill="none" xmlns="http://www.w3.org/2000/svg">
<path d="M32.9349 13.4352C32.9349 6.02706 26.9079 0 19.4997 0C12.0914 0 6.06445 6.02706 6.06445 13.4352C6.06445 20.1709 11.0472 25.7643 17.5202 26.7243V34.4412L13.8632 34.8983C12.8747 35.0219 12.1292 35.8664 12.1292 36.8625V38.3683C12.1292 38.7172 12.4121 39 12.761 39H26.2383C26.5872 39 26.8701 38.7172 26.8701 38.3683V36.8626C26.8701 35.8664 26.1246 35.0219 25.1361 34.8983L21.4791 34.4412V26.7243C27.9521 25.7643 32.9349 20.1709 32.9349 13.4352ZM7.32795 13.4352C7.32795 6.72367 12.7881 1.2635 19.4997 1.2635C26.2112 1.2635 31.6714 6.72367 31.6714 13.4352C31.6714 19.4728 27.2524 24.4968 21.4791 25.4451V19.1155L22.1302 19.8595C22.7771 20.5988 23.7112 21.0416 24.693 21.0742C24.7321 21.0756 24.7711 21.0762 24.8101 21.0762C25.7509 21.0762 26.664 20.6995 27.3327 20.0308C27.6644 19.6991 27.8457 19.2399 27.8301 18.771C27.8145 18.3023 27.6031 17.8562 27.25 17.5472L22.6476 13.5202L25.8432 10.7241C26.5825 10.0772 27.0253 9.14301 27.058 8.16128C27.0907 7.17945 26.711 6.21802 26.0146 5.52157C25.6829 5.18986 25.2242 5.00733 24.7548 5.02409C24.286 5.03976 23.8399 5.2511 23.5309 5.60429L19.5039 10.2065L16.7077 7.01099C16.0608 6.27167 15.1267 5.82894 14.1449 5.79626C13.1635 5.76417 12.2017 6.14322 11.5052 6.83966C11.1735 7.17137 10.9923 7.63061 11.0079 8.09945C11.0235 8.56821 11.2349 9.01431 11.588 9.32327L16.1903 13.3503L12.9947 16.1464C12.2554 16.7933 11.8126 17.7275 11.78 18.7092C11.7473 19.691 12.127 20.6525 12.8233 21.3489C13.1418 21.6675 13.5779 21.8473 14.0272 21.8473C14.0458 21.8473 14.0645 21.8471 14.0831 21.8464C14.552 21.8307 14.9981 21.6194 15.3071 21.2662L17.5202 18.7368V25.4451C11.7469 24.4968 7.32795 19.4728 7.32795 13.4352ZM19.4997 12.0454C20.266 12.0454 20.8895 12.6689 20.8895 13.4352C20.8895 14.2016 20.266 14.8251 19.4997 14.8251C18.7333 14.8251 18.1098 14.2016 18.1098 13.4352C18.1098 12.6689 18.7333 12.0454 19.4997 12.0454ZM20.3781 15.9384C21.0547 15.7003 21.6062 15.1955 21.9064 14.5505L26.4179 18.4981C26.5101 18.5788 26.5632 18.6907 26.5672 18.8132C26.5713 18.9356 26.5259 19.0508 26.4374 19.1392C25.9826 19.5941 25.3775 19.8334 24.735 19.8114C24.092 19.79 23.5046 19.5115 23.081 19.0275L20.3781 15.9384ZM20.5056 10.9805L24.4818 6.43618C24.5625 6.34394 24.6744 6.29088 24.7968 6.28683C24.9205 6.28338 25.0345 6.32828 25.123 6.41681C25.5778 6.87158 25.8166 7.47621 25.7952 8.11916C25.7738 8.7622 25.4953 9.34947 25.0111 9.77316L21.9598 12.4431C21.6921 11.7815 21.1653 11.2518 20.5056 10.9805ZM17.0479 12.4218L12.4199 8.37236C12.3277 8.29167 12.2746 8.17981 12.2706 8.05733C12.2665 7.93486 12.312 7.81971 12.4005 7.73127C12.8553 7.27641 13.461 7.03727 14.1028 7.05908C14.7458 7.08048 15.3332 7.35895 15.7568 7.84304L18.5001 10.9781C17.8445 11.2456 17.3191 11.768 17.0479 12.4218ZM16.999 14.3214C17.2374 14.992 17.738 15.5389 18.3772 15.8386L14.356 20.4341C14.2753 20.5264 14.1634 20.5795 14.0409 20.5835C13.9182 20.5888 13.8034 20.5421 13.7149 20.4535C13.26 19.9987 13.0213 19.3941 13.0427 18.7512C13.0641 18.1081 13.3425 17.5209 13.8267 17.0972L16.999 14.3214ZM19.3341 16.6639L20.2156 17.6715V25.5853C19.9786 25.5991 19.7401 25.6069 19.4997 25.6069C19.2593 25.6069 19.0207 25.5991 18.7837 25.5853V17.2928L19.3341 16.6639ZM25.6066 36.8626V37.7365H13.3927V36.8625C13.3927 36.5022 13.6624 36.1968 14.0199 36.1521L18.1911 35.6307H20.808L24.9794 36.1521C25.3369 36.1968 25.6066 36.5022 25.6066 36.8626ZM20.2156 34.3672H18.7837V26.8513C19.0208 26.8638 19.2594 26.8704 19.4997 26.8704C19.7399 26.8704 19.9785 26.8638 20.2156 26.8513V34.3672Z" fill="url(#paint0_linear_4_61)"/>
<defs>
<linearGradient id="paint0_linear_4_61" x1="19.4997" y1="0" x2="19.4997" y2="39" gradientUnits="userSpaceOnUse">
<stop stop-color="#3F9868"/>
<stop offset="1" stop-color="#41D290"/>
</linearGradient>
</defs>
</svg>
