<svg width="29" height="33" viewBox="0 0 29 33" fill="none" xmlns="http://www.w3.org/2000/svg">
<path d="M27.6117 4.79389C27.6117 4.79389 22.3049 3.8574 20.7961 3.33713C18.6637 2.74664 16.6698 1.73864 14.9301 0.371588C14.8144 0.259926 14.6615 0.195055 14.5008 0.189494C14.3269 0.186452 14.1588 0.251845 14.0326 0.371588C12.3097 1.74976 10.3219 2.75915 8.19257 3.33713C6.69679 3.8574 1.49409 4.79389 1.39003 4.79389C1.23836 4.81847 1.10029 4.89595 1.0003 5.01261C0.900304 5.12927 0.844844 5.27757 0.84375 5.43122C0.84375 15.9667 0.973817 20.8312 4.19949 25.7868C6.95693 30.027 13.9546 32.6023 14.2537 32.7194C14.3268 32.7328 14.4017 32.7328 14.4748 32.7194H14.6959C14.9951 32.6023 22.0448 30.027 24.8022 25.7868C28.0279 20.8312 28.1579 15.9667 28.1579 5.43122C28.1568 5.27757 28.1014 5.12927 28.0014 5.01261C27.9014 4.89595 27.7633 4.81847 27.6117 4.79389ZM23.7096 25.0844C21.4465 28.5572 15.6715 30.9375 14.4748 31.4057C13.2782 30.9375 7.55524 28.5572 5.29206 25.0844C2.43057 20.6881 2.15743 16.7601 2.14443 5.9775C4.33376 5.65962 6.50462 5.22544 8.6478 4.67682C10.745 3.996 12.7206 2.98622 14.5008 1.68527C16.3009 2.9514 18.2894 3.92586 20.3929 4.57277C22.5361 5.12125 24.707 5.55542 26.8963 5.87345C26.8443 16.7081 26.5711 20.6361 23.7096 25.0324V25.0844Z" fill="url(#paint0_linear_4_58)"/>
<path d="M8.41339 17.1113C8.34982 17.0547 8.27558 17.0115 8.19504 16.9841C8.1145 16.9567 8.02929 16.9457 7.94444 16.9518C7.85959 16.9579 7.77681 16.9808 7.70098 17.0194C7.62515 17.058 7.5578 17.1113 7.50292 17.1763C7.39281 17.31 7.33934 17.4814 7.35392 17.6539C7.3685 17.8265 7.44998 17.9865 7.58096 18.0998L14.0843 23.6537C14.1986 23.7561 14.3471 23.8118 14.5006 23.8097H14.5916C14.6832 23.7965 14.7711 23.7641 14.8495 23.7149C14.9279 23.6656 14.9951 23.6004 15.0468 23.5236L22.6168 12.4158C22.7151 12.2727 22.7525 12.0963 22.7208 11.9256C22.6891 11.7548 22.5908 11.6037 22.4477 11.5054C22.3045 11.407 22.1282 11.3696 21.9574 11.4013C21.7867 11.433 21.6355 11.5313 21.5372 11.6744L14.3705 22.1969L8.41339 17.1113Z" fill="url(#paint1_linear_4_58)"/>
<defs>
<linearGradient id="paint0_linear_4_58" x1="14.5008" y1="0.189392" x2="14.5008" y2="32.7295" gradientUnits="userSpaceOnUse">
<stop stop-color="#3F9868"/>
<stop offset="1" stop-color="#41D290"/>
</linearGradient>
<linearGradient id="paint1_linear_4_58" x1="15.0417" y1="11.3903" x2="15.0417" y2="23.8098" gradientUnits="userSpaceOnUse">
<stop stop-color="#3F9868"/>
<stop offset="1" stop-color="#41D290"/>
</linearGradient>
</defs>
</svg>
