<svg width="40" height="40" viewBox="0 0 40 40" fill="none" xmlns="http://www.w3.org/2000/svg">
<g clip-path="url(#clip0_4_63)">
<path d="M12.4827 22.19H8.28867C8.51328 21.3996 9.19305 21.0114 10.2398 20.4767C11.5277 19.819 13.1305 19.0003 13.1305 16.6608C13.1305 14.7554 11.7354 13.2051 10.0204 13.2051C8.30539 13.2051 6.91023 14.7554 6.91023 16.6608C6.91023 17.0187 7.20031 17.3088 7.5582 17.3088C7.91602 17.3088 8.20617 17.0187 8.20617 16.6608C8.20617 15.4699 9.02 14.501 10.0204 14.501C11.0209 14.501 11.8346 15.4699 11.8346 16.6608C11.8346 18.1324 11.0046 18.631 9.65031 19.3227C8.42953 19.9462 6.91016 20.7222 6.91016 22.838C6.91016 23.1958 7.20023 23.4859 7.55813 23.4859H12.4825C12.8403 23.4859 13.1305 23.1958 13.1305 22.838C13.1305 22.4801 12.8405 22.19 12.4827 22.19Z" fill="url(#paint0_linear_4_63)"/>
<path d="M36.3275 30.4937L35.2837 30.9017C38.3374 27.2991 40.0003 22.7845 40.0003 18C40.0003 12.6578 37.92 7.63531 34.1424 3.85789C30.3648 0.0804687 25.3425 -2 20.0003 -2C15.8943 -2 11.9488 -0.764922 8.59043 1.5718C8.29668 1.77617 8.22426 2.18 8.42863 2.47375C8.63293 2.76742 9.03676 2.84 9.33059 2.63555C12.4707 0.450703 16.1602 -0.704141 20.0003 -0.704141C24.9963 -0.704141 29.6933 1.24141 33.2261 4.77414C36.7589 8.30695 38.7044 13.0039 38.7044 18C38.7044 22.6341 37.0365 26.9973 33.9833 30.4227L34.243 28.8116C34.3 28.4583 34.0598 28.1257 33.7065 28.0687C33.3534 28.0115 33.0207 28.252 32.9637 28.6052L32.3536 32.3897C32.3167 32.6192 32.4055 32.851 32.5864 32.997C32.7034 33.0916 32.8475 33.1408 32.9934 33.1408C33.0728 33.1408 33.1529 33.1262 33.2293 33.0962L36.7995 31.7005C37.1327 31.5702 37.2973 31.1945 37.167 30.8612C37.0365 30.528 36.6607 30.3633 36.3275 30.4937Z" fill="url(#paint1_linear_4_63)"/>
<path d="M26.4257 11.165C26.0863 11.0518 25.7193 11.2353 25.6061 11.5748L21.4592 24.0154C21.346 24.3549 21.5295 24.7218 21.8691 24.8351C21.937 24.8576 22.0062 24.8684 22.0741 24.8684C22.3453 24.8684 22.5981 24.6967 22.6887 24.4252L26.8356 11.9846C26.9488 11.6451 26.7652 11.2782 26.4257 11.165Z" fill="url(#paint2_linear_4_63)"/>
<path d="M33.6772 13.5039C33.5582 13.3177 33.3524 13.2051 33.1314 13.2051H28.2935C27.9357 13.2051 27.6455 13.4952 27.6455 13.8531C27.6455 14.2109 27.9356 14.5011 28.2935 14.5011H32.1188L28.3963 22.5665C28.2464 22.8914 28.3882 23.2764 28.7131 23.4263C28.8011 23.4669 28.8933 23.4861 28.9842 23.4861C29.2291 23.4861 29.4635 23.3465 29.5729 23.1095L33.7197 14.1247C33.8123 13.924 33.7963 13.69 33.6772 13.5039Z" fill="url(#paint3_linear_4_63)"/>
<path d="M19.9994 20.1166H19.2651V13.8531C19.2651 13.4953 18.975 13.2052 18.6171 13.2052C18.2593 13.2052 17.9691 13.4952 17.9691 13.8531V20.1166H15.2605L16.4878 13.9802C16.558 13.6293 16.3305 13.288 15.9795 13.2178C15.6283 13.1477 15.2873 13.3752 15.2171 13.7262L13.8348 20.6377C13.7968 20.828 13.8461 21.0254 13.9691 21.1756C14.0922 21.3257 14.276 21.4127 14.4702 21.4127H17.9691V22.8382C17.9691 23.196 18.2591 23.4862 18.617 23.4862C18.9748 23.4862 19.265 23.1961 19.265 22.8382V21.4125H19.9994C20.3572 21.4125 20.6473 21.1224 20.6473 20.7645C20.6474 20.4067 20.3573 20.1166 19.9994 20.1166Z" fill="url(#paint4_linear_4_63)"/>
<path d="M31.5713 33.5266C31.367 33.2328 30.963 33.1603 30.6694 33.3647C27.5293 35.5494 23.8399 36.7042 20 36.7042C15.004 36.7042 10.307 34.7586 6.77414 31.2259C3.24148 27.6931 1.29586 22.996 1.29586 18C1.29586 13.366 2.96375 9.00283 6.01687 5.57744L5.73812 7.30651C5.68117 7.65979 5.92133 7.99236 6.27461 8.04932C6.30953 8.05494 6.34422 8.05768 6.37852 8.05768C6.69094 8.05768 6.96609 7.83111 7.01742 7.51283L7.64656 3.61033C7.68352 3.3808 7.59469 3.14901 7.41383 3.00299C7.23297 2.85697 6.98758 2.81908 6.77102 2.90369L3.08961 4.34291C2.75641 4.47322 2.5918 4.84901 2.72211 5.18229C2.85242 5.51549 3.2282 5.6801 3.56148 5.54979L4.71656 5.09822C1.66289 8.70096 0 13.2155 0 18C0 23.3422 2.08031 28.3647 5.85789 32.1421C9.63547 35.9196 14.6578 38 20 38C24.1059 38 28.0512 36.765 31.4095 34.4285C31.7031 34.2242 31.7756 33.8203 31.5713 33.5266Z" fill="url(#paint5_linear_4_63)"/>
</g>
<defs>
<linearGradient id="paint0_linear_4_63" x1="10.0204" y1="13.2051" x2="10.0204" y2="23.4859" gradientUnits="userSpaceOnUse">
<stop stop-color="#3F9868"/>
<stop offset="1" stop-color="#41D290"/>
</linearGradient>
<linearGradient id="paint1_linear_4_63" x1="24.1564" y1="-2" x2="24.1564" y2="33.1408" gradientUnits="userSpaceOnUse">
<stop stop-color="#3F9868"/>
<stop offset="1" stop-color="#41D290"/>
</linearGradient>
<linearGradient id="paint2_linear_4_63" x1="24.1474" y1="11.1315" x2="24.1474" y2="24.8684" gradientUnits="userSpaceOnUse">
<stop stop-color="#3F9868"/>
<stop offset="1" stop-color="#41D290"/>
</linearGradient>
<linearGradient id="paint3_linear_4_63" x1="30.7124" y1="13.2051" x2="30.7124" y2="23.4861" gradientUnits="userSpaceOnUse">
<stop stop-color="#3F9868"/>
<stop offset="1" stop-color="#41D290"/>
</linearGradient>
<linearGradient id="paint4_linear_4_63" x1="17.2348" y1="13.2051" x2="17.2348" y2="23.4862" gradientUnits="userSpaceOnUse">
<stop stop-color="#3F9868"/>
<stop offset="1" stop-color="#41D290"/>
</linearGradient>
<linearGradient id="paint5_linear_4_63" x1="15.8437" y1="2.85925" x2="15.8437" y2="38" gradientUnits="userSpaceOnUse">
<stop stop-color="#3F9868"/>
<stop offset="1" stop-color="#41D290"/>
</linearGradient>
<clipPath id="clip0_4_63">
<rect width="40" height="40" fill="white"/>
</clipPath>
</defs>
</svg>
